v 1.000000 -1.000000 -1.000000
v 1.000000 -1.000000 1.000000
v -1.000000 -1.000000 1.000000
v -1.000000 -1.000000 -1.000000
v 1.000000 1.000000 -1.000000
v 1.000000 1.000000 1.000000
v -1.000000 1.000000 1.000000
v -1.000000 1.000000 -1.000000
vn 1.000000 0.000000 0.000000
vn -1.000000 0.000000 0.000000
vn 0.000000 1.000000 0.000000
vn 0.000000 -1.000000 0.000000
vn 0.000000 0.000000 1.000000
vn 0.000000 0.000000 -1.000000
f 1//3 3//3 2//3
f 1//3 4//3 3//3
f 1//2 6//2 5//2
f 1//2 2//2 6//2
f 2//6 7//6 6//6
f 2//6 3//6 7//6
f 3//1 8//1 7//1
f 3//1 4//1 8//1
f 4//5 5//5 8//5
f 4//5 1//5 5//5
f 5//4 7//4 8//4
f 5//4 6//4 7//4
